<?xml version="1.0" encoding="UTF-8"?>
<svg width="317px" height="80px" viewBox="0 0 317 80" version="1.1" xmlns="http://www.w3.org/2000/svg" xmlns:xlink="http://www.w3.org/1999/xlink">
    <!-- Generator: Sketch 45.2 (43514) - http://www.bohemiancoding.com/sketch -->
    <title>Group</title>
    <desc>Created with Sketch.</desc>
    <defs></defs>
    <g id="Page-1" stroke="none" stroke-width="1" fill="none" fill-rule="evenodd">
        <g id="Group" transform="translate(1.000000, 1.000000)">
            <g id="logo" fill-rule="nonzero">
                <ellipse id="Oval" stroke="#1D53D8" stroke-width="2" fill="#FFFFFF" cx="39.4245607" cy="39" rx="39.4245607" ry="39"></ellipse>
                <g id="Wave" transform="translate(0.000000, 22.119403)" fill="#1D53D8">
                    <path d="M1.92686732,18.1655868 C2.14900646,17.964335 2.41212242,17.762349 2.71211489,17.5749626 C3.94571636,16.8044094 5.35605549,16.5205356 7.00829931,16.960721 C8.21790065,17.282979 8.97203306,17.9168621 9.74204276,19.0818239 C9.82801274,19.2118895 9.9130034,19.3456078 10.0252746,19.5261223 C10.0574088,19.5777891 10.0948176,19.6381711 10.1642783,19.7503092 C10.2205521,19.841056 10.2625881,19.9084441 10.3040198,19.9741395 C11.25848,21.4875604 12.0818443,22.1453268 13.7692226,22.1453273 C15.2269586,22.1453278 15.8692099,20.9547083 16.5294804,18.3674477 C16.953511,16.7058895 17.2560498,14.97658 17.8466912,11.1372065 C17.8741982,10.958374 17.8741982,10.958374 17.9016902,10.7796454 C18.4700073,7.08558979 18.760585,5.41970426 19.1558103,3.85591393 C19.3987397,2.89471405 19.6474856,2.16881047 19.9034511,1.68670542 C20.0234766,1.46064021 20.1394771,1.30012728 20.2355393,1.21352465 C19.8382338,1.23266397 19.7032844,1.1814789 19.6360534,1.13003674 C19.6515342,1.14188194 19.692399,1.18916815 19.7426012,1.26721723 C19.8791674,1.47953621 20.0248812,1.82399981 20.1702341,2.28723073 C20.4564892,3.19950826 20.7327686,4.53723531 21.0061984,6.29799981 C21.4442823,9.1190633 21.7735096,12.0936258 22.430416,18.7290592 C22.4556209,18.9836825 22.4556209,18.9836825 22.480831,19.2383779 C23.1363999,25.8610226 23.458721,28.7940726 23.8950199,31.6827078 C24.5292691,35.8819269 25.0905314,37.8419385 26.1838806,38.2788683 C26.8784194,38.5564234 27.5427666,38.3379623 27.9466293,37.9000827 C28.1780954,37.6491204 28.3707002,37.2904064 28.552432,36.8073843 C28.8653446,35.9756988 29.1550007,34.738875 29.4385708,33.0823495 C29.8840342,30.4800961 30.2104541,27.7302225 30.8720021,21.4566561 C30.8908216,21.2781763 30.8908216,21.2781763 30.9096417,21.0996824 C31.5298312,15.21794 31.8307256,12.6373606 32.2374502,10.0736586 C32.725769,6.99564475 33.2965709,5.04838555 33.6252995,4.87322804 C33.4147364,4.98542305 33.0643806,4.95022338 32.9327655,4.85149005 C32.9913075,4.89540637 33.1036938,5.05411824 33.2239843,5.30449962 C33.4978132,5.87446658 33.7710507,6.8077952 34.0436628,8.08644705 C34.4870974,10.1663204 34.8336061,12.5021451 35.495371,17.5331721 C35.5362996,17.8444232 35.5362996,17.8444232 35.5772487,18.1559148 C36.9415215,28.5319085 37.5214609,31.5376177 38.9534132,32.3006098 C39.9428385,32.8278086 40.8120234,32.3994517 41.3396989,31.5920786 C41.6732253,31.0817644 41.9774541,30.3082014 42.2806503,29.2515483 C42.7490807,27.619047 43.1065444,25.8506617 43.8295033,21.8573133 C43.8522443,21.7316898 43.8522443,21.7316898 43.8749836,21.6060629 C45.0758892,14.971729 45.8062798,12.0964856 46.4939472,11.7300734 C46.3675015,11.7974479 46.1094575,11.7583774 46.1002047,11.7506002 C46.2690546,11.8925226 46.4811538,12.2135728 46.7018375,12.6870642 C47.105652,13.553475 47.4828485,14.7499242 48.0362276,16.8023031 C48.090694,17.0043085 48.1467696,17.2138369 48.2195744,17.4870212 C48.2324467,17.5353218 48.3648483,18.0326304 48.4039822,18.1793021 C49.8055381,23.4322627 50.4669358,25.1104052 52.048566,25.5317778 C53.4030778,25.8926424 54.3170817,25.2082433 55.0820026,23.8862901 C55.5599345,23.0603177 55.926945,22.1513967 56.6256458,20.2038297 C56.6690564,20.0827871 56.6690564,20.0827871 56.712433,19.9617977 C57.3364191,18.2215895 57.645157,17.4322085 58.0349561,16.6670784 C58.4761085,15.8011478 58.9045396,15.3081984 59.1360897,15.2465096 C59.186285,15.2331368 59.2785511,15.270972 59.5441288,15.5643701 C59.8742505,15.9290734 60.1963048,16.4741348 60.6524018,17.3973107 C60.7450591,17.5848563 61.0709509,18.256341 61.0789156,18.27265 C61.6611338,19.4648499 62.052164,20.1530135 62.5427794,20.7518066 C63.2666684,21.6353087 64.1220373,22.1453273 65.2438136,22.1453273 C66.4138628,22.1453273 67.3341223,21.6462221 68.1206552,20.7721247 C68.6578872,20.1750827 69.0744219,19.5101376 69.7392573,18.2877319 C69.7551559,18.2584997 70.0039999,17.7993725 70.0761209,17.6674456 C70.9346243,16.097032 71.5066626,15.3792051 72.0047373,15.2465096 C72.3095084,15.1653135 72.8021365,15.2517643 73.4549211,15.5445732 C74.0635095,15.8175578 74.7365878,16.238262 75.4342433,16.7648483 C75.9203778,17.1317796 76.3886249,17.5270875 76.8200433,17.9225414 C76.9710511,18.0609607 77.1064059,18.1892643 77.2238888,18.3039814 C77.2932339,18.3716938 77.3404189,18.4190029 77.3632623,18.4424565 C77.6391148,18.7256771 78.1981653,18.8022061 78.6119364,18.6133889 C79.0257075,18.4245716 79.1375126,18.0419093 78.8616601,17.7586887 C78.8312462,17.7274625 78.7761755,17.6722469 78.6985253,17.5964249 C78.5710162,17.4719177 78.4251574,17.3336572 78.2629887,17.1850075 C77.7996173,16.7602643 77.2963304,16.3353749 76.7682579,15.9367889 C75.9767322,15.33935 75.1983899,14.852851 74.4419895,14.5135648 C73.3518452,14.0245766 72.3115738,13.8420204 71.3515374,14.0977902 C70.134152,14.422122 69.4758542,15.2481923 68.3894743,17.2354479 C68.3162939,17.3693129 68.0666697,17.8298796 68.0515518,17.8576762 C66.8619765,20.0448997 66.081143,20.9126633 65.2438136,20.9126633 C64.5667586,20.9126633 63.8246958,20.0069802 62.7868795,17.8818588 C62.7802709,17.8683265 62.4528501,17.1936913 62.3583555,17.0024268 C61.8587366,15.9911593 61.5011642,15.3859854 61.0749711,14.9151467 C60.4073237,14.1775604 59.5315125,13.8184195 58.4828898,14.0977902 C57.5683054,14.3414507 56.9502641,15.052564 56.3345187,16.2612004 C55.9188363,17.0771364 55.6020562,17.8870799 54.9634799,19.6679778 C54.9200819,19.7890268 54.9200819,19.7890268 54.8767442,19.9098661 C54.1995815,21.7973977 53.8435794,22.6790558 53.4076829,23.4323817 C53.1587925,23.8625196 52.9201064,24.1617766 52.7135295,24.3164598 C52.4927727,24.3273791 52.0090938,23.6295979 51.5443226,22.4503494 C51.128126,21.3943474 50.7741896,20.2015491 50.1755409,17.9578442 C50.1364814,17.811451 50.0041271,17.31432 49.9911992,17.2658108 C49.9181906,16.9918619 49.8619104,16.781569 49.8071801,16.5785848 C49.2396724,14.4738057 48.8525133,13.2457556 48.4175059,12.3124185 C48.1335188,11.7031053 47.843031,11.2633999 47.4966081,10.9722231 C46.9336667,10.4990573 46.1073542,10.373945 45.3877371,10.757381 C44.0592976,11.465218 43.4911049,13.7019555 42.0877892,21.4544931 C42.0650485,21.5801274 42.0650485,21.5801274 42.0423129,21.7057212 C41.3253291,25.6660654 40.9704466,27.4216813 40.513551,29.0139837 C40.2347413,29.9856483 39.9597151,30.6849578 39.6958357,31.0887082 C39.6368518,31.1789568 39.5815019,31.2493324 39.5331899,31.2982249 C39.6631825,31.2514377 39.9276605,31.2576031 40.0596234,31.3279173 C39.7455495,31.1605683 39.1992693,29.5733463 38.713599,27.056215 C38.3071753,24.9498031 37.9945831,22.7891585 37.3708598,18.0454233 C37.3299145,17.7339612 37.3299145,17.7339612 37.2889762,17.4226362 C36.6238816,12.3662954 36.2757798,10.0197312 35.8256478,7.90844454 C35.5391219,6.56453191 35.2490494,5.57369821 34.9347188,4.91942804 C34.7414627,4.51717079 34.5335314,4.22353015 34.2630711,4.02063979 C33.7908444,3.66639081 33.0905642,3.59603481 32.5190895,3.90053554 C31.0228083,4.69780398 30.4585059,8.25476395 29.1134536,21.0109464 C29.0946327,21.1894474 29.0946327,21.1894474 29.0758146,21.3679144 C28.4164641,27.6206421 28.0910217,30.3622804 27.6499471,32.9388962 C27.3751268,34.5443076 27.0962571,35.735074 26.8084747,36.4999664 C26.6695949,36.869093 26.5327437,37.1239694 26.423838,37.242048 C26.7114066,37.1424328 26.9335604,37.1510896 27.0918608,37.2143504 C27.0884386,37.1629764 27.0259953,37.067689 26.9600074,36.9415193 C26.8137388,36.6618524 26.6647605,36.2601499 26.5171845,35.7447926 C26.2322718,34.7498348 25.9579846,33.3544912 25.6863325,31.5559449 C25.2530826,28.6874965 24.9315468,25.7615916 24.2775717,19.1550479 C24.2523626,18.9003634 24.2523626,18.9003634 24.2271558,18.6457201 C23.5685148,11.9927666 23.2384503,9.01063947 22.7969706,6.16770887 C22.0964987,1.65698482 21.5765687,-1.94885076e-08 20.0347162,0 C18.6185633,1.78996968e-08 18.0157996,1.13529118 17.381307,3.64579148 C16.9765897,5.24713854 16.6836896,6.9263384 16.1107327,10.6505526 C16.0832338,10.8293267 16.0832338,10.8293267 16.0557327,11.0081208 C15.4698429,14.8166066 15.1696957,16.5322466 14.7554822,18.1553362 C14.5001303,19.1559289 14.2373215,19.9129623 13.9654716,20.4169237 C13.8371671,20.6547775 13.7125738,20.8242564 13.6076553,20.9171366 C13.0661737,20.9126631 12.6454157,20.5765294 11.9574045,19.4855981 C11.9176947,19.4226331 11.8769515,19.3573173 11.8219857,19.26868 C11.7529675,19.1572555 11.7149495,19.0958901 11.6822342,19.043289 C11.5651493,18.8550346 11.4753115,18.7136903 11.3827921,18.5737159 C10.4371481,17.1430338 9.40680034,16.2769789 7.66149918,15.8120015 C5.29537689,15.181627 3.19538584,15.6043143 1.49819828,16.6644405 C0.833550318,17.0796042 0.375336515,17.4947329 0.123497166,17.7892075 C-0.127730983,18.0829674 0.016518155,18.4605097 0.445686634,18.6324719 C0.874855112,18.8044341 1.42642556,18.7056976 1.67765371,18.4119377 C1.71309412,18.3704974 1.79708394,18.2831669 1.92686732,18.1655868 Z" id="Shape"></path>
                </g>
            </g>
            <text id="LYREBIRD" font-family="Raleway-Regular, Raleway" font-size="48" font-weight="normal" fill="#000000">
                <tspan x="94" y="56">LYREBIRD</tspan>
            </text>
        </g>
    </g>
</svg>